<svg width="707" height="448" viewBox="0 0 707 448" fill="none" xmlns="http://www.w3.org/2000/svg">
<g opacity="0.5">
<path d="M7.75597 0H9.47952V17.2355H7.75597V0Z" fill="#CBCBCB"/>
<path d="M7.53387e-08 9.47952L0 7.75597L17.2355 7.75597V9.47952L7.53387e-08 9.47952Z" fill="#CBCBCB"/>
<path d="M7.75597 43.0887H9.47952V60.3242H7.75597V43.0887Z" fill="#CBCBCB"/>
<path d="M7.53387e-08 52.5683L0 50.8447L17.2355 50.8447V52.5683L7.53387e-08 52.5683Z" fill="#CBCBCB"/>
<path d="M7.75597 86.1775H9.47952V103.413H7.75597V86.1775Z" fill="#CBCBCB"/>
<path d="M7.53387e-08 95.657L0 93.9335L17.2355 93.9335V95.657L7.53387e-08 95.657Z" fill="#CBCBCB"/>
<path d="M7.75597 129.266H9.47952V146.502H7.75597V129.266Z" fill="#CBCBCB"/>
<path d="M7.53387e-08 138.746L0 137.022L17.2355 137.022V138.746L7.53387e-08 138.746Z" fill="#CBCBCB"/>
<path d="M7.75597 172.355H9.47952V189.59H7.75597V172.355Z" fill="#CBCBCB"/>
<path d="M7.53387e-08 181.834L0 180.111L17.2355 180.111V181.834L7.53387e-08 181.834Z" fill="#CBCBCB"/>
<path d="M7.75597 215.444H9.47952V232.679H7.75597V215.444Z" fill="#CBCBCB"/>
<path d="M7.53387e-08 224.923L0 223.2L17.2355 223.2V224.923L7.53387e-08 224.923Z" fill="#CBCBCB"/>
<path d="M50.8447 0H52.5683V17.2355H50.8447V0Z" fill="#CBCBCB"/>
<path d="M43.0887 9.47952L43.0887 7.75597L60.3242 7.75597V9.47952L43.0887 9.47952Z" fill="#CBCBCB"/>
<path d="M50.8447 43.0887H52.5683V60.3242H50.8447V43.0887Z" fill="#CBCBCB"/>
<path d="M43.0887 52.5683L43.0887 50.8447L60.3242 50.8447V52.5683L43.0887 52.5683Z" fill="#CBCBCB"/>
<path d="M50.8447 86.1775H52.5683V103.413H50.8447V86.1775Z" fill="#CBCBCB"/>
<path d="M43.0887 95.657L43.0887 93.9335L60.3242 93.9335V95.657L43.0887 95.657Z" fill="#CBCBCB"/>
<path d="M50.8447 129.266H52.5683V146.502H50.8447V129.266Z" fill="#CBCBCB"/>
<path d="M43.0887 138.746L43.0887 137.022L60.3242 137.022V138.746L43.0887 138.746Z" fill="#CBCBCB"/>
<path d="M50.8447 172.355H52.5683V189.59H50.8447V172.355Z" fill="#CBCBCB"/>
<path d="M43.0887 181.834L43.0887 180.111L60.3242 180.111V181.834L43.0887 181.834Z" fill="#CBCBCB"/>
<path d="M50.8447 215.444H52.5683V232.679H50.8447V215.444Z" fill="#CBCBCB"/>
<path d="M43.0887 224.923L43.0887 223.2L60.3242 223.2V224.923L43.0887 224.923Z" fill="#CBCBCB"/>
<path d="M137.022 0H138.746V17.2355H137.022V0Z" fill="#CBCBCB"/>
<path d="M129.266 9.47952L129.266 7.75597L146.502 7.75597V9.47952L129.266 9.47952Z" fill="#CBCBCB"/>
<path d="M137.022 43.0887H138.746V60.3242H137.022V43.0887Z" fill="#CBCBCB"/>
<path d="M129.266 52.5683L129.266 50.8447L146.502 50.8447V52.5683L129.266 52.5683Z" fill="#CBCBCB"/>
<path d="M137.022 86.1775H138.746V103.413H137.022V86.1775Z" fill="#CBCBCB"/>
<path d="M129.266 95.657L129.266 93.9335L146.502 93.9335V95.657L129.266 95.657Z" fill="#CBCBCB"/>
<path d="M137.022 129.266H138.746V146.502H137.022V129.266Z" fill="#CBCBCB"/>
<path d="M129.266 138.746L129.266 137.022L146.502 137.022V138.746L129.266 138.746Z" fill="#CBCBCB"/>
<path d="M137.022 172.355H138.746V189.59H137.022V172.355Z" fill="#CBCBCB"/>
<path d="M129.266 181.834L129.266 180.111L146.502 180.111V181.834L129.266 181.834Z" fill="#CBCBCB"/>
<path d="M137.022 215.444H138.746V232.679H137.022V215.444Z" fill="#CBCBCB"/>
<path d="M129.266 224.923L129.266 223.2L146.502 223.2V224.923L129.266 224.923Z" fill="#CBCBCB"/>
<path d="M93.9334 0H95.657V17.2355H93.9334V0Z" fill="#CBCBCB"/>
<path d="M86.1775 9.47952L86.1775 7.75597L103.413 7.75597V9.47952L86.1775 9.47952Z" fill="#CBCBCB"/>
<path d="M93.9334 43.0887H95.657V60.3242H93.9334V43.0887Z" fill="#CBCBCB"/>
<path d="M86.1775 52.5683L86.1775 50.8447L103.413 50.8447V52.5683L86.1775 52.5683Z" fill="#CBCBCB"/>
<path d="M93.9334 86.1775H95.657V103.413H93.9334V86.1775Z" fill="#CBCBCB"/>
<path d="M86.1775 95.657L86.1775 93.9335L103.413 93.9335V95.657L86.1775 95.657Z" fill="#CBCBCB"/>
<path d="M93.9334 129.266H95.657V146.502H93.9334V129.266Z" fill="#CBCBCB"/>
<path d="M86.1775 138.746L86.1775 137.022L103.413 137.022V138.746L86.1775 138.746Z" fill="#CBCBCB"/>
<path d="M93.9334 172.355H95.657V189.59H93.9334V172.355Z" fill="#CBCBCB"/>
<path d="M86.1775 181.834L86.1775 180.111L103.413 180.111V181.834L86.1775 181.834Z" fill="#CBCBCB"/>
<path d="M93.9334 215.444H95.657V232.679H93.9334V215.444Z" fill="#CBCBCB"/>
<path d="M86.1775 224.923L86.1775 223.2L103.413 223.2V224.923L86.1775 224.923Z" fill="#CBCBCB"/>
<path d="M180.111 0H181.834V17.2355H180.111V0Z" fill="#CBCBCB"/>
<path d="M172.355 9.47952L172.355 7.75597L189.59 7.75597V9.47952L172.355 9.47952Z" fill="#CBCBCB"/>
<path d="M180.111 43.0887H181.834V60.3242H180.111V43.0887Z" fill="#CBCBCB"/>
<path d="M172.355 52.5683L172.355 50.8447L189.59 50.8447V52.5683L172.355 52.5683Z" fill="#CBCBCB"/>
<path d="M180.111 86.1775H181.834V103.413H180.111V86.1775Z" fill="#CBCBCB"/>
<path d="M172.355 95.657L172.355 93.9335L189.59 93.9335V95.657L172.355 95.657Z" fill="#CBCBCB"/>
<path d="M180.111 129.266H181.834V146.502H180.111V129.266Z" fill="#CBCBCB"/>
<path d="M172.355 138.746L172.355 137.022L189.59 137.022V138.746L172.355 138.746Z" fill="#CBCBCB"/>
<path d="M180.111 172.355H181.834V189.59H180.111V172.355Z" fill="#CBCBCB"/>
<path d="M172.355 181.834L172.355 180.111L189.59 180.111V181.834L172.355 181.834Z" fill="#CBCBCB"/>
<path d="M180.111 215.444H181.834V232.679H180.111V215.444Z" fill="#CBCBCB"/>
<path d="M172.355 224.923L172.355 223.2L189.59 223.2V224.923L172.355 224.923Z" fill="#CBCBCB"/>
<path d="M223.2 0H224.923V17.2355H223.2V0Z" fill="#CBCBCB"/>
<path d="M215.444 9.47952L215.444 7.75597L232.679 7.75597V9.47952L215.444 9.47952Z" fill="#CBCBCB"/>
<path d="M223.2 43.0887H224.923V60.3242H223.2V43.0887Z" fill="#CBCBCB"/>
<path d="M215.444 52.5683L215.444 50.8447L232.679 50.8447V52.5683L215.444 52.5683Z" fill="#CBCBCB"/>
<path d="M223.2 86.1775H224.923V103.413H223.2V86.1775Z" fill="#CBCBCB"/>
<path d="M215.444 95.657L215.444 93.9335L232.679 93.9335V95.657L215.444 95.657Z" fill="#CBCBCB"/>
<path d="M223.2 129.266H224.923V146.502H223.2V129.266Z" fill="#CBCBCB"/>
<path d="M215.444 138.746L215.444 137.022L232.679 137.022V138.746L215.444 138.746Z" fill="#CBCBCB"/>
<path d="M223.2 172.355H224.923V189.59H223.2V172.355Z" fill="#CBCBCB"/>
<path d="M215.444 181.834L215.444 180.111L232.679 180.111V181.834L215.444 181.834Z" fill="#CBCBCB"/>
<path d="M223.2 215.444H224.923V232.679H223.2V215.444Z" fill="#CBCBCB"/>
<path d="M215.444 224.923L215.444 223.2L232.679 223.2V224.923L215.444 224.923Z" fill="#CBCBCB"/>
<path d="M266.288 0H268.012V17.2355H266.288V0Z" fill="#CBCBCB"/>
<path d="M258.532 9.47952L258.532 7.75597L275.768 7.75597V9.47952L258.532 9.47952Z" fill="#CBCBCB"/>
<path d="M266.288 43.0887H268.012V60.3242H266.288V43.0887Z" fill="#CBCBCB"/>
<path d="M258.532 52.5683L258.532 50.8447L275.768 50.8447V52.5683L258.532 52.5683Z" fill="#CBCBCB"/>
<path d="M266.288 86.1775H268.012V103.413H266.288V86.1775Z" fill="#CBCBCB"/>
<path d="M258.532 95.657L258.532 93.9335L275.768 93.9335V95.657L258.532 95.657Z" fill="#CBCBCB"/>
<path d="M266.288 129.266H268.012V146.502H266.288V129.266Z" fill="#CBCBCB"/>
<path d="M258.532 138.746L258.532 137.022L275.768 137.022V138.746L258.532 138.746Z" fill="#CBCBCB"/>
<path d="M266.288 172.355H268.012V189.59H266.288V172.355Z" fill="#CBCBCB"/>
<path d="M258.532 181.834L258.532 180.111L275.768 180.111V181.834L258.532 181.834Z" fill="#CBCBCB"/>
<path d="M266.288 215.444H268.012V232.679H266.288V215.444Z" fill="#CBCBCB"/>
<path d="M258.532 224.923L258.532 223.2L275.768 223.2V224.923L258.532 224.923Z" fill="#CBCBCB"/>
</g>
<g opacity="0.5">
<path d="M7.75597 258.188H9.47952V275.423H7.75597V258.188Z" fill="#CBCBCB"/>
<path d="M7.53387e-08 267.667L0 265.944L17.2355 265.944V267.667L7.53387e-08 267.667Z" fill="#CBCBCB"/>
<path d="M7.75597 301.276H9.47952V318.512H7.75597V301.276Z" fill="#CBCBCB"/>
<path d="M7.53387e-08 310.756L0 309.032L17.2355 309.032V310.756L7.53387e-08 310.756Z" fill="#CBCBCB"/>
<path d="M7.75597 344.365H9.47952V361.601H7.75597V344.365Z" fill="#CBCBCB"/>
<path d="M7.53387e-08 353.845L0 352.121L17.2355 352.121V353.845L7.53387e-08 353.845Z" fill="#CBCBCB"/>
<path d="M7.75597 387.454H9.47952V404.689H7.75597V387.454Z" fill="#CBCBCB"/>
<path d="M7.53387e-08 396.934L0 395.21L17.2355 395.21V396.934L7.53387e-08 396.934Z" fill="#CBCBCB"/>
<path d="M7.75597 430.543H9.47952V447.778H7.75597V430.543Z" fill="#CBCBCB"/>
<path d="M7.53387e-08 440.022L0 438.299L17.2355 438.299V440.022L7.53387e-08 440.022Z" fill="#CBCBCB"/>
<path d="M50.8447 258.188H52.5683V275.423H50.8447V258.188Z" fill="#CBCBCB"/>
<path d="M43.0887 267.667L43.0887 265.944L60.3242 265.944V267.667L43.0887 267.667Z" fill="#CBCBCB"/>
<path d="M50.8447 301.276H52.5683V318.512H50.8447V301.276Z" fill="#CBCBCB"/>
<path d="M43.0887 310.756L43.0887 309.032L60.3242 309.032V310.756L43.0887 310.756Z" fill="#CBCBCB"/>
<path d="M50.8447 344.365H52.5683V361.601H50.8447V344.365Z" fill="#CBCBCB"/>
<path d="M43.0887 353.845L43.0887 352.121L60.3242 352.121V353.845L43.0887 353.845Z" fill="#CBCBCB"/>
<path d="M50.8447 387.454H52.5683V404.689H50.8447V387.454Z" fill="#CBCBCB"/>
<path d="M43.0887 396.934L43.0887 395.21L60.3242 395.21V396.934L43.0887 396.934Z" fill="#CBCBCB"/>
<path d="M50.8447 430.543H52.5683V447.778H50.8447V430.543Z" fill="#CBCBCB"/>
<path d="M43.0887 440.022L43.0887 438.299L60.3242 438.299V440.022L43.0887 440.022Z" fill="#CBCBCB"/>
<path d="M137.022 258.188H138.746V275.423H137.022V258.188Z" fill="#CBCBCB"/>
<path d="M129.266 267.667L129.266 265.944L146.502 265.944V267.667L129.266 267.667Z" fill="#CBCBCB"/>
<path d="M137.022 301.276H138.746V318.512H137.022V301.276Z" fill="#CBCBCB"/>
<path d="M129.266 310.756L129.266 309.032L146.502 309.032V310.756L129.266 310.756Z" fill="#CBCBCB"/>
<path d="M137.022 344.365H138.746V361.601H137.022V344.365Z" fill="#CBCBCB"/>
<path d="M129.266 353.845L129.266 352.121L146.502 352.121V353.845L129.266 353.845Z" fill="#CBCBCB"/>
<path d="M137.022 387.454H138.746V404.689H137.022V387.454Z" fill="#CBCBCB"/>
<path d="M129.266 396.934L129.266 395.21L146.502 395.21V396.934L129.266 396.934Z" fill="#CBCBCB"/>
<path d="M137.022 430.543H138.746V447.778H137.022V430.543Z" fill="#CBCBCB"/>
<path d="M129.266 440.022L129.266 438.299L146.502 438.299V440.022L129.266 440.022Z" fill="#CBCBCB"/>
<path d="M93.9334 258.188H95.657V275.423H93.9334V258.188Z" fill="#CBCBCB"/>
<path d="M86.1775 267.667L86.1775 265.944L103.413 265.944V267.667L86.1775 267.667Z" fill="#CBCBCB"/>
<path d="M93.9334 301.276H95.657V318.512H93.9334V301.276Z" fill="#CBCBCB"/>
<path d="M86.1775 310.756L86.1775 309.032L103.413 309.032V310.756L86.1775 310.756Z" fill="#CBCBCB"/>
<path d="M93.9334 344.365H95.657V361.601H93.9334V344.365Z" fill="#CBCBCB"/>
<path d="M86.1775 353.845L86.1775 352.121L103.413 352.121V353.845L86.1775 353.845Z" fill="#CBCBCB"/>
<path d="M93.9334 387.454H95.657V404.689H93.9334V387.454Z" fill="#CBCBCB"/>
<path d="M86.1775 396.934L86.1775 395.21L103.413 395.21V396.934L86.1775 396.934Z" fill="#CBCBCB"/>
<path d="M93.9334 430.543H95.657V447.778H93.9334V430.543Z" fill="#CBCBCB"/>
<path d="M86.1775 440.022L86.1775 438.299L103.413 438.299V440.022L86.1775 440.022Z" fill="#CBCBCB"/>
<path d="M180.111 258.188H181.834V275.423H180.111V258.188Z" fill="#CBCBCB"/>
<path d="M172.355 267.667L172.355 265.944L189.59 265.944V267.667L172.355 267.667Z" fill="#CBCBCB"/>
<path d="M180.111 301.276H181.834V318.512H180.111V301.276Z" fill="#CBCBCB"/>
<path d="M172.355 310.756L172.355 309.032L189.59 309.032V310.756L172.355 310.756Z" fill="#CBCBCB"/>
<path d="M180.111 344.365H181.834V361.601H180.111V344.365Z" fill="#CBCBCB"/>
<path d="M172.355 353.845L172.355 352.121L189.59 352.121V353.845L172.355 353.845Z" fill="#CBCBCB"/>
<path d="M180.111 387.454H181.834V404.689H180.111V387.454Z" fill="#CBCBCB"/>
<path d="M172.355 396.934L172.355 395.21L189.59 395.21V396.934L172.355 396.934Z" fill="#CBCBCB"/>
<path d="M180.111 430.543H181.834V447.778H180.111V430.543Z" fill="#CBCBCB"/>
<path d="M172.355 440.022L172.355 438.299L189.59 438.299V440.022L172.355 440.022Z" fill="#CBCBCB"/>
<path d="M223.2 258.188H224.923V275.423H223.2V258.188Z" fill="#CBCBCB"/>
<path d="M215.444 267.667L215.444 265.944L232.679 265.944V267.667L215.444 267.667Z" fill="#CBCBCB"/>
<path d="M223.2 301.276H224.923V318.512H223.2V301.276Z" fill="#CBCBCB"/>
<path d="M215.444 310.756L215.444 309.032L232.679 309.032V310.756L215.444 310.756Z" fill="#CBCBCB"/>
<path d="M223.2 344.365H224.923V361.601H223.2V344.365Z" fill="#CBCBCB"/>
<path d="M215.444 353.845L215.444 352.121L232.679 352.121V353.845L215.444 353.845Z" fill="#CBCBCB"/>
<path d="M223.2 387.454H224.923V404.689H223.2V387.454Z" fill="#CBCBCB"/>
<path d="M215.444 396.934L215.444 395.21L232.679 395.21V396.934L215.444 396.934Z" fill="#CBCBCB"/>
<path d="M223.2 430.543H224.923V447.778H223.2V430.543Z" fill="#CBCBCB"/>
<path d="M215.444 440.022L215.444 438.299L232.679 438.299V440.022L215.444 440.022Z" fill="#CBCBCB"/>
<path d="M266.288 258.188H268.012V275.423H266.288V258.188Z" fill="#CBCBCB"/>
<path d="M258.532 267.667L258.532 265.944L275.768 265.944V267.667L258.532 267.667Z" fill="#CBCBCB"/>
<path d="M266.288 301.276H268.012V318.512H266.288V301.276Z" fill="#CBCBCB"/>
<path d="M258.532 310.756L258.532 309.032L275.768 309.032V310.756L258.532 310.756Z" fill="#CBCBCB"/>
<path d="M266.288 344.365H268.012V361.601H266.288V344.365Z" fill="#CBCBCB"/>
<path d="M258.532 353.845L258.532 352.121L275.768 352.121V353.845L258.532 353.845Z" fill="#CBCBCB"/>
<path d="M266.288 387.454H268.012V404.689H266.288V387.454Z" fill="#CBCBCB"/>
<path d="M258.532 396.934L258.532 395.21L275.768 395.21V396.934L258.532 396.934Z" fill="#CBCBCB"/>
<path d="M266.288 430.543H268.012V447.778H266.288V430.543Z" fill="#CBCBCB"/>
<path d="M258.532 440.022L258.532 438.299L275.768 438.299V440.022L258.532 440.022Z" fill="#CBCBCB"/>
</g>
<g opacity="0.5">
<path d="M310.067 0H311.79V17.2355H310.067V0Z" fill="#CBCBCB"/>
<path d="M302.311 9.47952L302.311 7.75597L319.546 7.75597V9.47952L302.311 9.47952Z" fill="#CBCBCB"/>
<path d="M310.067 43.0887H311.79V60.3242H310.067V43.0887Z" fill="#CBCBCB"/>
<path d="M302.311 52.5683L302.311 50.8447L319.546 50.8447V52.5683L302.311 52.5683Z" fill="#CBCBCB"/>
<path d="M310.067 86.1775H311.79V103.413H310.067V86.1775Z" fill="#CBCBCB"/>
<path d="M302.311 95.657L302.311 93.9335L319.546 93.9335V95.657L302.311 95.657Z" fill="#CBCBCB"/>
<path d="M310.067 129.266H311.79V146.502H310.067V129.266Z" fill="#CBCBCB"/>
<path d="M302.311 138.746L302.311 137.022L319.546 137.022V138.746L302.311 138.746Z" fill="#CBCBCB"/>
<path d="M310.067 172.355H311.79V189.59H310.067V172.355Z" fill="#CBCBCB"/>
<path d="M302.311 181.834L302.311 180.111L319.546 180.111V181.834L302.311 181.834Z" fill="#CBCBCB"/>
<path d="M396.244 0H397.968V17.2355H396.244V0Z" fill="#CBCBCB"/>
<path d="M388.488 9.47952L388.488 7.75597L405.724 7.75597V9.47952L388.488 9.47952Z" fill="#CBCBCB"/>
<path d="M396.244 43.0887H397.968V60.3242H396.244V43.0887Z" fill="#CBCBCB"/>
<path d="M388.488 52.5683L388.488 50.8447L405.724 50.8447V52.5683L388.488 52.5683Z" fill="#CBCBCB"/>
<path d="M396.244 86.1775H397.968V103.413H396.244V86.1775Z" fill="#CBCBCB"/>
<path d="M388.488 95.657L388.488 93.9335L405.724 93.9335V95.657L388.488 95.657Z" fill="#CBCBCB"/>
<path d="M396.244 129.266H397.968V146.502H396.244V129.266Z" fill="#CBCBCB"/>
<path d="M388.488 138.746L388.488 137.022L405.724 137.022V138.746L388.488 138.746Z" fill="#CBCBCB"/>
<path d="M396.244 172.355H397.968V189.59H396.244V172.355Z" fill="#CBCBCB"/>
<path d="M388.488 181.834L388.488 180.111L405.724 180.111V181.834L388.488 181.834Z" fill="#CBCBCB"/>
<path d="M396.244 215.444H397.968V232.679H396.244V215.444Z" fill="#CBCBCB"/>
<path d="M388.488 224.923L388.488 223.2L405.724 223.2V224.923L388.488 224.923Z" fill="#CBCBCB"/>
<path d="M353.155 0H354.879V17.2355H353.155V0Z" fill="#CBCBCB"/>
<path d="M345.399 9.47952L345.399 7.75597L362.635 7.75597V9.47952L345.399 9.47952Z" fill="#CBCBCB"/>
<path d="M353.155 43.0887H354.879V60.3242H353.155V43.0887Z" fill="#CBCBCB"/>
<path d="M345.399 52.5683L345.399 50.8447L362.635 50.8447V52.5683L345.399 52.5683Z" fill="#CBCBCB"/>
<path d="M353.155 86.1775H354.879V103.413H353.155V86.1775Z" fill="#CBCBCB"/>
<path d="M345.399 95.657L345.399 93.9335L362.635 93.9335V95.657L345.399 95.657Z" fill="#CBCBCB"/>
<path d="M353.155 129.266H354.879V146.502H353.155V129.266Z" fill="#CBCBCB"/>
<path d="M345.399 138.746L345.399 137.022L362.635 137.022V138.746L345.399 138.746Z" fill="#CBCBCB"/>
<path d="M353.155 172.355H354.879V189.59H353.155V172.355Z" fill="#CBCBCB"/>
<path d="M345.399 181.834L345.399 180.111L362.635 180.111V181.834L345.399 181.834Z" fill="#CBCBCB"/>
<path d="M353.155 215.444H354.879V232.679H353.155V215.444Z" fill="#CBCBCB"/>
<path d="M345.399 224.923L345.399 223.2L362.635 223.2V224.923L345.399 224.923Z" fill="#CBCBCB"/>
<path d="M439.333 0H441.056V17.2355H439.333V0Z" fill="#CBCBCB"/>
<path d="M431.577 9.47952L431.577 7.75597L448.812 7.75597V9.47952L431.577 9.47952Z" fill="#CBCBCB"/>
<path d="M439.333 43.0887H441.056V60.3242H439.333V43.0887Z" fill="#CBCBCB"/>
<path d="M431.577 52.5683L431.577 50.8447L448.812 50.8447V52.5683L431.577 52.5683Z" fill="#CBCBCB"/>
<path d="M439.333 86.1775H441.056V103.413H439.333V86.1775Z" fill="#CBCBCB"/>
<path d="M431.577 95.657L431.577 93.9335L448.812 93.9335V95.657L431.577 95.657Z" fill="#CBCBCB"/>
<path d="M439.333 129.266H441.056V146.502H439.333V129.266Z" fill="#CBCBCB"/>
<path d="M431.577 138.746L431.577 137.022L448.812 137.022V138.746L431.577 138.746Z" fill="#CBCBCB"/>
<path d="M439.333 172.355H441.056V189.59H439.333V172.355Z" fill="#CBCBCB"/>
<path d="M431.577 181.834L431.577 180.111L448.812 180.111V181.834L431.577 181.834Z" fill="#CBCBCB"/>
<path d="M439.333 215.444H441.056V232.679H439.333V215.444Z" fill="#CBCBCB"/>
<path d="M431.577 224.923L431.577 223.2L448.812 223.2V224.923L431.577 224.923Z" fill="#CBCBCB"/>
<path d="M482.422 0H484.145V17.2355H482.422V0Z" fill="#CBCBCB"/>
<path d="M474.666 9.47952L474.666 7.75597L491.901 7.75597V9.47952L474.666 9.47952Z" fill="#CBCBCB"/>
<path d="M482.422 43.0887H484.145V60.3242H482.422V43.0887Z" fill="#CBCBCB"/>
<path d="M474.666 52.5683L474.666 50.8447L491.901 50.8447V52.5683L474.666 52.5683Z" fill="#CBCBCB"/>
<path d="M482.422 86.1775H484.145V103.413H482.422V86.1775Z" fill="#CBCBCB"/>
<path d="M474.666 95.657L474.666 93.9335L491.901 93.9335V95.657L474.666 95.657Z" fill="#CBCBCB"/>
<path d="M482.422 129.266H484.145V146.502H482.422V129.266Z" fill="#CBCBCB"/>
<path d="M474.666 138.746L474.666 137.022L491.901 137.022V138.746L474.666 138.746Z" fill="#CBCBCB"/>
<path d="M482.422 172.355H484.145V189.59H482.422V172.355Z" fill="#CBCBCB"/>
<path d="M474.666 181.834L474.666 180.111L491.901 180.111V181.834L474.666 181.834Z" fill="#CBCBCB"/>
<path d="M482.422 215.444H484.145V232.679H482.422V215.444Z" fill="#CBCBCB"/>
<path d="M474.666 224.923L474.666 223.2L491.901 223.2V224.923L474.666 224.923Z" fill="#CBCBCB"/>
<path d="M525.51 0H527.234V17.2355H525.51V0Z" fill="#CBCBCB"/>
<path d="M517.754 9.47952L517.754 7.75597L534.99 7.75597V9.47952L517.754 9.47952Z" fill="#CBCBCB"/>
<path d="M525.51 43.0887H527.234V60.3242H525.51V43.0887Z" fill="#CBCBCB"/>
<path d="M517.754 52.5683L517.754 50.8447L534.99 50.8447V52.5683L517.754 52.5683Z" fill="#CBCBCB"/>
<path d="M525.51 86.1775H527.234V103.413H525.51V86.1775Z" fill="#CBCBCB"/>
<path d="M517.754 95.657L517.754 93.9335L534.99 93.9335V95.657L517.754 95.657Z" fill="#CBCBCB"/>
<path d="M525.51 129.266H527.234V146.502H525.51V129.266Z" fill="#CBCBCB"/>
<path d="M517.754 138.746L517.754 137.022L534.99 137.022V138.746L517.754 138.746Z" fill="#CBCBCB"/>
<path d="M525.51 172.355H527.234V189.59H525.51V172.355Z" fill="#CBCBCB"/>
<path d="M517.754 181.834L517.754 180.111L534.99 180.111V181.834L517.754 181.834Z" fill="#CBCBCB"/>
<path d="M525.51 215.444H527.234V232.679H525.51V215.444Z" fill="#CBCBCB"/>
<path d="M517.754 224.923L517.754 223.2L534.99 223.2V224.923L517.754 224.923Z" fill="#CBCBCB"/>
</g>
<g opacity="0.5">
<path d="M568.254 0H569.978V17.2355H568.254V0Z" fill="#CBCBCB"/>
<path d="M560.498 9.47952L560.498 7.75597L577.734 7.75597V9.47952L560.498 9.47952Z" fill="#CBCBCB"/>
<path d="M568.254 43.0887H569.978V60.3242H568.254V43.0887Z" fill="#CBCBCB"/>
<path d="M560.498 52.5683L560.498 50.8447L577.734 50.8447V52.5683L560.498 52.5683Z" fill="#CBCBCB"/>
<path d="M568.254 86.1775H569.978V103.413H568.254V86.1775Z" fill="#CBCBCB"/>
<path d="M560.498 95.657L560.498 93.9335L577.734 93.9335V95.657L560.498 95.657Z" fill="#CBCBCB"/>
<path d="M568.254 129.266H569.978V146.502H568.254V129.266Z" fill="#CBCBCB"/>
<path d="M560.498 138.746L560.498 137.022L577.734 137.022V138.746L560.498 138.746Z" fill="#CBCBCB"/>
<path d="M568.254 172.355H569.978V189.59H568.254V172.355Z" fill="#CBCBCB"/>
<path d="M560.498 181.834L560.498 180.111L577.734 180.111V181.834L560.498 181.834Z" fill="#CBCBCB"/>
<path d="M568.254 215.444H569.978V232.679H568.254V215.444Z" fill="#CBCBCB"/>
<path d="M560.498 224.923L560.498 223.2L577.734 223.2V224.923L560.498 224.923Z" fill="#CBCBCB"/>
<path d="M611.343 0H613.067V17.2355H611.343V0Z" fill="#CBCBCB"/>
<path d="M603.587 9.47952L603.587 7.75597L620.823 7.75597V9.47952L603.587 9.47952Z" fill="#CBCBCB"/>
<path d="M611.343 43.0887H613.067V60.3242H611.343V43.0887Z" fill="#CBCBCB"/>
<path d="M603.587 52.5683L603.587 50.8447L620.823 50.8447V52.5683L603.587 52.5683Z" fill="#CBCBCB"/>
<path d="M611.343 86.1775H613.067V103.413H611.343V86.1775Z" fill="#CBCBCB"/>
<path d="M603.587 95.657L603.587 93.9335L620.823 93.9335V95.657L603.587 95.657Z" fill="#CBCBCB"/>
<path d="M611.343 129.266H613.067V146.502H611.343V129.266Z" fill="#CBCBCB"/>
<path d="M603.587 138.746L603.587 137.022L620.823 137.022V138.746L603.587 138.746Z" fill="#CBCBCB"/>
<path d="M611.343 172.355H613.067V189.59H611.343V172.355Z" fill="#CBCBCB"/>
<path d="M603.587 181.834L603.587 180.111L620.823 180.111V181.834L603.587 181.834Z" fill="#CBCBCB"/>
<path d="M611.343 215.444H613.067V232.679H611.343V215.444Z" fill="#CBCBCB"/>
<path d="M603.587 224.923L603.587 223.2L620.823 223.2V224.923L603.587 224.923Z" fill="#CBCBCB"/>
<path d="M654.432 0H656.155V17.2355H654.432V0Z" fill="#CBCBCB"/>
<path d="M646.676 9.47952L646.676 7.75597L663.911 7.75597V9.47952L646.676 9.47952Z" fill="#CBCBCB"/>
<path d="M654.432 43.0887H656.155V60.3242H654.432V43.0887Z" fill="#CBCBCB"/>
<path d="M646.676 52.5683L646.676 50.8447L663.911 50.8447V52.5683L646.676 52.5683Z" fill="#CBCBCB"/>
<path d="M654.432 86.1775H656.155V103.413H654.432V86.1775Z" fill="#CBCBCB"/>
<path d="M646.676 95.657L646.676 93.9335L663.911 93.9335V95.657L646.676 95.657Z" fill="#CBCBCB"/>
<path d="M654.432 129.266H656.155V146.502H654.432V129.266Z" fill="#CBCBCB"/>
<path d="M646.676 138.746L646.676 137.022L663.911 137.022V138.746L646.676 138.746Z" fill="#CBCBCB"/>
<path d="M654.432 172.355H656.155V189.59H654.432V172.355Z" fill="#CBCBCB"/>
<path d="M646.676 181.834L646.676 180.111L663.911 180.111V181.834L646.676 181.834Z" fill="#CBCBCB"/>
<path d="M654.432 215.444H656.155V232.679H654.432V215.444Z" fill="#CBCBCB"/>
<path d="M646.676 224.923L646.676 223.2L663.911 223.2V224.923L646.676 224.923Z" fill="#CBCBCB"/>
<path d="M697.52 0H699.244V17.2355H697.52V0Z" fill="#CBCBCB"/>
<path d="M689.765 9.47952L689.765 7.75597L707 7.75597V9.47952L689.765 9.47952Z" fill="#CBCBCB"/>
<path d="M697.52 43.0887H699.244V60.3242H697.52V43.0887Z" fill="#CBCBCB"/>
<path d="M689.765 52.5683L689.765 50.8447L707 50.8447V52.5683L689.765 52.5683Z" fill="#CBCBCB"/>
<path d="M697.52 86.1775H699.244V103.413H697.52V86.1775Z" fill="#CBCBCB"/>
<path d="M689.765 95.657L689.765 93.9335L707 93.9335V95.657L689.765 95.657Z" fill="#CBCBCB"/>
<path d="M697.52 129.266H699.244V146.502H697.52V129.266Z" fill="#CBCBCB"/>
<path d="M689.765 138.746L689.765 137.022L707 137.022V138.746L689.765 138.746Z" fill="#CBCBCB"/>
<path d="M697.52 172.355H699.244V189.59H697.52V172.355Z" fill="#CBCBCB"/>
<path d="M689.765 181.834L689.765 180.111L707 180.111V181.834L689.765 181.834Z" fill="#CBCBCB"/>
<path d="M697.52 215.444H699.244V232.679H697.52V215.444Z" fill="#CBCBCB"/>
<path d="M689.765 224.923L689.765 223.2L707 223.2V224.923L689.765 224.923Z" fill="#CBCBCB"/>
</g>
<g opacity="0.5">
<path d="M568.254 258.188H569.978V275.423H568.254V258.188Z" fill="#CBCBCB"/>
<path d="M560.498 267.667L560.498 265.944L577.734 265.944V267.667L560.498 267.667Z" fill="#CBCBCB"/>
<path d="M568.254 301.276H569.978V318.512H568.254V301.276Z" fill="#CBCBCB"/>
<path d="M560.498 310.756L560.498 309.032L577.734 309.032V310.756L560.498 310.756Z" fill="#CBCBCB"/>
<path d="M568.254 344.365H569.978V361.601H568.254V344.365Z" fill="#CBCBCB"/>
<path d="M560.498 353.845L560.498 352.121L577.734 352.121V353.845L560.498 353.845Z" fill="#CBCBCB"/>
<path d="M568.254 387.454H569.978V404.689H568.254V387.454Z" fill="#CBCBCB"/>
<path d="M560.498 396.934L560.498 395.21L577.734 395.21V396.934L560.498 396.934Z" fill="#CBCBCB"/>
<path d="M568.254 430.543H569.978V447.778H568.254V430.543Z" fill="#CBCBCB"/>
<path d="M560.498 440.022L560.498 438.299L577.734 438.299V440.022L560.498 440.022Z" fill="#CBCBCB"/>
<path d="M611.343 258.188H613.067V275.423H611.343V258.188Z" fill="#CBCBCB"/>
<path d="M603.587 267.667L603.587 265.944L620.823 265.944V267.667L603.587 267.667Z" fill="#CBCBCB"/>
<path d="M611.343 301.276H613.067V318.512H611.343V301.276Z" fill="#CBCBCB"/>
<path d="M603.587 310.756L603.587 309.032L620.823 309.032V310.756L603.587 310.756Z" fill="#CBCBCB"/>
<path d="M611.343 344.365H613.067V361.601H611.343V344.365Z" fill="#CBCBCB"/>
<path d="M603.587 353.845L603.587 352.121L620.823 352.121V353.845L603.587 353.845Z" fill="#CBCBCB"/>
<path d="M611.343 387.454H613.067V404.689H611.343V387.454Z" fill="#CBCBCB"/>
<path d="M603.587 396.934L603.587 395.21L620.823 395.21V396.934L603.587 396.934Z" fill="#CBCBCB"/>
<path d="M611.343 430.543H613.067V447.778H611.343V430.543Z" fill="#CBCBCB"/>
<path d="M603.587 440.022L603.587 438.299L620.823 438.299V440.022L603.587 440.022Z" fill="#CBCBCB"/>
<path d="M654.432 258.188H656.155V275.423H654.432V258.188Z" fill="#CBCBCB"/>
<path d="M646.676 267.667L646.676 265.944L663.911 265.944V267.667L646.676 267.667Z" fill="#CBCBCB"/>
<path d="M654.432 301.276H656.155V318.512H654.432V301.276Z" fill="#CBCBCB"/>
<path d="M646.676 310.756L646.676 309.032L663.911 309.032V310.756L646.676 310.756Z" fill="#CBCBCB"/>
<path d="M654.432 344.365H656.155V361.601H654.432V344.365Z" fill="#CBCBCB"/>
<path d="M646.676 353.845L646.676 352.121L663.911 352.121V353.845L646.676 353.845Z" fill="#CBCBCB"/>
<path d="M654.432 387.454H656.155V404.689H654.432V387.454Z" fill="#CBCBCB"/>
<path d="M646.676 396.934L646.676 395.21L663.911 395.21V396.934L646.676 396.934Z" fill="#CBCBCB"/>
<path d="M654.432 430.543H656.155V447.778H654.432V430.543Z" fill="#CBCBCB"/>
<path d="M646.676 440.022L646.676 438.299L663.911 438.299V440.022L646.676 440.022Z" fill="#CBCBCB"/>
<path d="M697.52 258.188H699.244V275.423H697.52V258.188Z" fill="#CBCBCB"/>
<path d="M689.765 267.667L689.765 265.944L707 265.944V267.667L689.765 267.667Z" fill="#CBCBCB"/>
<path d="M697.52 301.276H699.244V318.512H697.52V301.276Z" fill="#CBCBCB"/>
<path d="M689.765 310.756L689.765 309.032L707 309.032V310.756L689.765 310.756Z" fill="#CBCBCB"/>
<path d="M697.52 344.365H699.244V361.601H697.52V344.365Z" fill="#CBCBCB"/>
<path d="M689.765 353.845L689.765 352.121L707 352.121V353.845L689.765 353.845Z" fill="#CBCBCB"/>
<path d="M697.52 387.454H699.244V404.689H697.52V387.454Z" fill="#CBCBCB"/>
<path d="M689.765 396.934L689.765 395.21L707 395.21V396.934L689.765 396.934Z" fill="#CBCBCB"/>
<path d="M697.52 430.543H699.244V447.778H697.52V430.543Z" fill="#CBCBCB"/>
<path d="M689.765 440.022L689.765 438.299L707 438.299V440.022L689.765 440.022Z" fill="#CBCBCB"/>
</g>
<g opacity="0.5">
<path d="M310.067 215.099H311.79V232.334H310.067V215.099Z" fill="#CBCBCB"/>
<path d="M302.311 224.579L302.311 222.855L319.546 222.855V224.579L302.311 224.579Z" fill="#CBCBCB"/>
<path d="M310.067 258.188H311.79V275.423H310.067V258.188Z" fill="#CBCBCB"/>
<path d="M302.311 267.667L302.311 265.944L319.546 265.944V267.667L302.311 267.667Z" fill="#CBCBCB"/>
<path d="M310.067 301.276H311.79V318.512H310.067V301.276Z" fill="#CBCBCB"/>
<path d="M302.311 310.756L302.311 309.032L319.546 309.032V310.756L302.311 310.756Z" fill="#CBCBCB"/>
<path d="M310.067 344.365H311.79V361.601H310.067V344.365Z" fill="#CBCBCB"/>
<path d="M302.311 353.845L302.311 352.121L319.546 352.121V353.845L302.311 353.845Z" fill="#CBCBCB"/>
<path d="M310.067 387.454H311.79V404.689H310.067V387.454Z" fill="#CBCBCB"/>
<path d="M302.311 396.933L302.311 395.21L319.546 395.21V396.933L302.311 396.933Z" fill="#CBCBCB"/>
<path d="M310.067 430.543H311.79V447.778H310.067V430.543Z" fill="#CBCBCB"/>
<path d="M302.311 440.022L302.311 438.299L319.546 438.299V440.022L302.311 440.022Z" fill="#CBCBCB"/>
<path d="M396.244 258.188H397.968V275.423H396.244V258.188Z" fill="#CBCBCB"/>
<path d="M388.488 267.667L388.488 265.944L405.724 265.944V267.667L388.488 267.667Z" fill="#CBCBCB"/>
<path d="M396.244 301.276H397.968V318.512H396.244V301.276Z" fill="#CBCBCB"/>
<path d="M388.488 310.756L388.488 309.032L405.724 309.032V310.756L388.488 310.756Z" fill="#CBCBCB"/>
<path d="M396.244 344.365H397.968V361.601H396.244V344.365Z" fill="#CBCBCB"/>
<path d="M388.488 353.845L388.488 352.121L405.724 352.121V353.845L388.488 353.845Z" fill="#CBCBCB"/>
<path d="M396.244 387.454H397.968V404.689H396.244V387.454Z" fill="#CBCBCB"/>
<path d="M388.488 396.933L388.488 395.21L405.724 395.21V396.933L388.488 396.933Z" fill="#CBCBCB"/>
<path d="M396.244 430.543H397.968V447.778H396.244V430.543Z" fill="#CBCBCB"/>
<path d="M388.488 440.022L388.488 438.299L405.724 438.299V440.022L388.488 440.022Z" fill="#CBCBCB"/>
<path d="M353.155 258.188H354.879V275.423H353.155V258.188Z" fill="#CBCBCB"/>
<path d="M345.399 267.667L345.399 265.944L362.635 265.944V267.667L345.399 267.667Z" fill="#CBCBCB"/>
<path d="M353.155 301.276H354.879V318.512H353.155V301.276Z" fill="#CBCBCB"/>
<path d="M345.399 310.756L345.399 309.032L362.635 309.032V310.756L345.399 310.756Z" fill="#CBCBCB"/>
<path d="M353.155 344.365H354.879V361.601H353.155V344.365Z" fill="#CBCBCB"/>
<path d="M345.399 353.845L345.399 352.121L362.635 352.121V353.845L345.399 353.845Z" fill="#CBCBCB"/>
<path d="M353.155 387.454H354.879V404.689H353.155V387.454Z" fill="#CBCBCB"/>
<path d="M345.399 396.933L345.399 395.21L362.635 395.21V396.933L345.399 396.933Z" fill="#CBCBCB"/>
<path d="M353.155 430.543H354.879V447.778H353.155V430.543Z" fill="#CBCBCB"/>
<path d="M345.399 440.022L345.399 438.299L362.635 438.299V440.022L345.399 440.022Z" fill="#CBCBCB"/>
<path d="M439.333 258.188H441.056V275.423H439.333V258.188Z" fill="#CBCBCB"/>
<path d="M431.577 267.667L431.577 265.944L448.812 265.944V267.667L431.577 267.667Z" fill="#CBCBCB"/>
<path d="M439.333 301.276H441.056V318.512H439.333V301.276Z" fill="#CBCBCB"/>
<path d="M431.577 310.756L431.577 309.032L448.812 309.032V310.756L431.577 310.756Z" fill="#CBCBCB"/>
<path d="M439.333 344.365H441.056V361.601H439.333V344.365Z" fill="#CBCBCB"/>
<path d="M431.577 353.845L431.577 352.121L448.812 352.121V353.845L431.577 353.845Z" fill="#CBCBCB"/>
<path d="M439.333 387.454H441.056V404.689H439.333V387.454Z" fill="#CBCBCB"/>
<path d="M431.577 396.933L431.577 395.21L448.812 395.21V396.933L431.577 396.933Z" fill="#CBCBCB"/>
<path d="M439.333 430.543H441.056V447.778H439.333V430.543Z" fill="#CBCBCB"/>
<path d="M431.577 440.022L431.577 438.299L448.812 438.299V440.022L431.577 440.022Z" fill="#CBCBCB"/>
<path d="M482.422 258.188H484.145V275.423H482.422V258.188Z" fill="#CBCBCB"/>
<path d="M474.666 267.667L474.666 265.944L491.901 265.944V267.667L474.666 267.667Z" fill="#CBCBCB"/>
<path d="M482.422 301.276H484.145V318.512H482.422V301.276Z" fill="#CBCBCB"/>
<path d="M474.666 310.756L474.666 309.032L491.901 309.032V310.756L474.666 310.756Z" fill="#CBCBCB"/>
<path d="M482.422 344.365H484.145V361.601H482.422V344.365Z" fill="#CBCBCB"/>
<path d="M474.666 353.845L474.666 352.121L491.901 352.121V353.845L474.666 353.845Z" fill="#CBCBCB"/>
<path d="M482.422 387.454H484.145V404.689H482.422V387.454Z" fill="#CBCBCB"/>
<path d="M474.666 396.933L474.666 395.21L491.901 395.21V396.933L474.666 396.933Z" fill="#CBCBCB"/>
<path d="M482.422 430.543H484.145V447.778H482.422V430.543Z" fill="#CBCBCB"/>
<path d="M474.666 440.022L474.666 438.299L491.901 438.299V440.022L474.666 440.022Z" fill="#CBCBCB"/>
<path d="M525.51 258.188H527.234V275.423H525.51V258.188Z" fill="#CBCBCB"/>
<path d="M517.754 267.667L517.754 265.944L534.99 265.944V267.667L517.754 267.667Z" fill="#CBCBCB"/>
<path d="M525.51 301.276H527.234V318.512H525.51V301.276Z" fill="#CBCBCB"/>
<path d="M517.754 310.756L517.754 309.032L534.99 309.032V310.756L517.754 310.756Z" fill="#CBCBCB"/>
<path d="M525.51 344.365H527.234V361.601H525.51V344.365Z" fill="#CBCBCB"/>
<path d="M517.754 353.845L517.754 352.121L534.99 352.121V353.845L517.754 353.845Z" fill="#CBCBCB"/>
<path d="M525.51 387.454H527.234V404.689H525.51V387.454Z" fill="#CBCBCB"/>
<path d="M517.754 396.933L517.754 395.21L534.99 395.21V396.933L517.754 396.933Z" fill="#CBCBCB"/>
<path d="M525.51 430.543H527.234V447.778H525.51V430.543Z" fill="#CBCBCB"/>
<path d="M517.754 440.022L517.754 438.299L534.99 438.299V440.022L517.754 440.022Z" fill="#CBCBCB"/>
</g>
</svg>
